# Blender v2.80 (sub 75) OBJ File: ''
# www.blender.org
mtllib floorOutside2.mtl
o floorOuter
v 150.626831 2.190926 -56.602364
v 121.566978 2.190935 -27.660614
v 157.214905 2.190945 -37.212452
v 116.531898 2.190923 -42.479778
v 141.574585 2.190910 -74.971573
v 109.613510 2.190910 -56.518845
v 68.095093 2.190923 -13.332863
v 65.389503 2.190918 -21.295897
v 100.914520 2.190898 -69.529869
v 51.454155 2.190896 -42.155819
v 56.997551 2.190906 -35.831196
v 90.598282 2.190887 -81.299957
v 61.671936 2.190910 -28.839752
v 130.192505 2.190893 -91.995651
v 161.204422 2.190958 -17.126265
v 125.644089 2.190958 3.308076
v 162.549545 2.190972 3.308076
v 124.616043 2.190946 -12.309301
v 78.828194 2.190876 -91.616180
v 38.138088 2.190884 -52.373592
v 45.129536 2.190890 -47.699219
v 65.817162 2.190863 -100.315178
v 101.293983 2.190863 -120.894165
v 84.269897 2.190849 -132.276245
v 116.694382 2.190877 -107.396042
v 70.285919 2.190935 3.308074
v 69.733513 2.190932 -5.083886
v 51.778111 2.190852 -107.233551
v 22.631203 2.190876 -58.796753
v 30.594231 2.190879 -56.091171
v 36.958946 2.190844 -112.268631
v 65.900681 2.190836 -141.328506
v 46.510780 2.190824 -147.916580
v 161.204422 2.190985 23.742403
v 121.566971 2.190978 34.276764
v 157.214920 2.190998 43.828587
v 124.616051 2.190967 18.925451
v 21.607639 2.190836 -115.317703
v 5.990262 2.190865 -60.987579
v 14.382220 2.190870 -60.435165
v 5.990260 2.190830 -116.345741
v 26.424587 2.190813 -151.906097
v 5.990260 2.190804 -153.251190
v 68.095093 2.190946 19.949017
v 69.733505 2.190941 11.700033
v -9.627133 2.190824 -115.317726
v -10.650676 2.190862 -58.796753
v -2.401698 2.190863 -60.435165
v -24.978428 2.190819 -112.268631
v -14.444074 2.190795 -151.906067
v -34.530258 2.190793 -147.916565
v 150.626846 2.191007 63.218498
v 109.613518 2.190992 63.134979
v 141.574570 2.191017 81.587700
v 116.531906 2.190985 49.095924
v 61.671940 2.190954 35.455902
v 65.389511 2.190949 27.912050
v -39.797585 2.190818 -107.233559
v -26.157562 2.190861 -52.373589
v -18.613708 2.190862 -56.091167
v -53.836651 2.190817 -100.315170
v -53.920166 2.190790 -141.328476
v -72.289383 2.190789 -132.276230
v 130.192505 2.191025 98.611809
v 90.598305 2.191003 87.916107
v 116.694382 2.191030 114.012184
v 100.914520 2.190998 76.146011
v -33.149006 2.190862 -47.699207
v -78.617767 2.190819 -81.299942
v -39.473625 2.190862 -42.155811
v -66.847687 2.190818 -91.616173
v -104.713852 2.190793 -107.396034
v -89.313469 2.190790 -120.894150
v 51.454163 2.190959 48.771965
v 56.997562 2.190958 42.447350
v -45.017025 2.190863 -35.831192
v -97.632996 2.190830 -56.518822
v -49.691406 2.190865 -28.839745
v -88.933990 2.190824 -69.529861
v -129.594040 2.190804 -74.971558
v -118.211975 2.190795 -91.995636
v 101.293991 2.191031 127.510315
v 65.817192 2.191005 106.931335
v 84.269905 2.191032 138.892380
v 78.828217 2.191004 98.232330
v -53.408985 2.190870 -21.295889
v -109.586456 2.190844 -27.660597
v -56.114567 2.190876 -13.332855
v -104.551369 2.190836 -42.479763
v -145.234390 2.190824 -37.212437
v -138.646317 2.190813 -56.602345
v 38.138096 2.190960 58.989742
v 45.129539 2.190960 54.315365
v -57.752979 2.190879 -5.083874
v -113.663559 2.190863 3.308084
v -58.305386 2.190884 3.308086
v -112.635521 2.190852 -12.309286
v -150.569016 2.190849 3.308084
v -149.223892 2.190836 -17.126249
v 51.778118 2.191004 113.849716
v 36.958965 2.191003 118.884796
v 46.510796 2.191030 154.532700
v 65.900696 2.191031 147.944641
v 30.594242 2.190960 62.707325
v 22.631210 2.190959 65.412910
v -57.752979 2.190890 11.700043
v -109.586449 2.190887 34.276772
v -56.114559 2.190896 19.949022
v -112.635536 2.190876 18.925478
v -145.234375 2.190877 43.828609
v -149.223892 2.190863 23.742422
v 21.607651 2.190998 121.933861
v 5.990275 2.191017 159.867340
v 26.424614 2.191025 158.522247
v 5.990268 2.190992 122.961899
v -53.408978 2.190906 27.912056
v -97.632988 2.190910 63.134995
v -49.691402 2.190910 35.455906
v -104.551369 2.190898 49.095932
v -129.594025 2.190910 81.587715
v -138.646301 2.190893 63.218517
v 14.382230 2.190958 67.051323
v 5.990270 2.190954 67.603729
v -39.473621 2.190923 48.771973
v -88.933990 2.190923 76.146027
v -78.617752 2.190935 87.916115
v -45.017021 2.190918 42.447350
v -118.211975 2.190926 98.611809
v -104.713852 2.190945 114.012207
v -9.627099 2.190985 121.933868
v -34.530251 2.190998 154.532730
v -14.444058 2.191007 158.522247
v -24.978416 2.190978 118.884796
v -26.157558 2.190935 58.989750
v -66.847672 2.190946 98.232330
v -53.836632 2.190958 106.931335
v -33.149002 2.190932 54.315369
v -89.313461 2.190958 127.510315
v -72.289368 2.190972 138.892395
v -2.401689 2.190949 67.051323
v -10.650672 2.190946 65.412910
v -39.797573 2.190967 113.849716
v -18.613705 2.190941 62.707329
v -53.920155 2.190985 147.944656
vt 0.337505 0.969258
vt 0.423681 0.871796
vt 0.400142 0.986472
vt 0.375809 0.858641
vt 0.277636 0.944050
vt 0.330054 0.839375
vt 0.458990 0.699784
vt 0.433267 0.692715
vt 0.287218 0.814278
vt 0.364593 0.652513
vt 0.385662 0.668876
vt 0.248008 0.783826
vt 0.408680 0.682362
vt 0.221589 0.911212
vt 0.464495 0.995326
vt 0.522510 0.878881
vt 0.529452 0.995741
vt 0.472864 0.878563
vt 0.213127 0.748497
vt 0.329733 0.612270
vt 0.345850 0.633529
vt 0.183135 0.708934
vt 0.124646 0.825142
vt 0.085402 0.773377
vt 0.170284 0.871368
vt 0.512096 0.703591
vt 0.485419 0.703420
vt 0.158587 0.665781
vt 0.306477 0.564376
vt 0.316542 0.589082
vt 0.139855 0.619804
vt 0.053283 0.716914
vt 0.028774 0.656756
vt 0.593904 0.987637
vt 0.619804 0.860145
vt 0.656756 0.971226
vt 0.571768 0.872687
vt 0.127313 0.571768
vt 0.296410 0.512096
vt 0.299737 0.538565
vt 0.121119 0.522510
vt 0.012363 0.593904
vt 0.004259 0.529452
vt 0.564376 0.693523
vt 0.538565 0.700263
vt 0.121437 0.472864
vt 0.300216 0.458990
vt 0.296580 0.485419
vt 0.128203 0.423681
vt 0.004674 0.464495
vt 0.013528 0.400142
vt 0.716914 0.946717
vt 0.708934 0.816865
vt 0.773377 0.914598
vt 0.665781 0.841413
vt 0.612270 0.670267
vt 0.589082 0.683457
vt 0.141359 0.375809
vt 0.317638 0.408680
vt 0.307285 0.433267
vt 0.160625 0.330054
vt 0.030742 0.337505
vt 0.055950 0.277636
vt 0.825142 0.875354
vt 0.783826 0.751992
vt 0.871368 0.829716
vt 0.748497 0.786873
vt 0.331124 0.385662
vt 0.216174 0.248008
vt 0.347487 0.364593
vt 0.185722 0.287218
vt 0.128632 0.170284
vt 0.088788 0.221589
vt 0.652513 0.635407
vt 0.633529 0.654150
vt 0.366471 0.345850
vt 0.291066 0.183135
vt 0.387730 0.329733
vt 0.251503 0.213127
vt 0.226623 0.085402
vt 0.174858 0.124646
vt 0.911212 0.778411
vt 0.839375 0.669946
vt 0.944050 0.722364
vt 0.814278 0.712782
vt 0.410918 0.316542
vt 0.380196 0.139855
vt 0.435624 0.306477
vt 0.334219 0.158587
vt 0.343244 0.028774
vt 0.283086 0.053283
vt 0.682362 0.591320
vt 0.668876 0.614338
vt 0.461435 0.299737
vt 0.477490 0.121119
vt 0.487904 0.296409
vt 0.428232 0.127313
vt 0.470547 0.004259
vt 0.406096 0.012363
vt 0.858641 0.624191
vt 0.871796 0.576319
vt 0.986472 0.599858
vt 0.969258 0.662495
vt 0.692715 0.566733
vt 0.699784 0.541010
vt 0.514581 0.296580
vt 0.576319 0.128204
vt 0.541010 0.300216
vt 0.527136 0.121437
vt 0.599858 0.013528
vt 0.535505 0.004674
vt 0.878563 0.527136
vt 0.995741 0.470547
vt 0.995326 0.535505
vt 0.878881 0.477490
vt 0.566733 0.307285
vt 0.669946 0.160625
vt 0.591320 0.317638
vt 0.624191 0.141359
vt 0.722364 0.055950
vt 0.662495 0.030742
vt 0.703420 0.514581
vt 0.703591 0.487904
vt 0.635407 0.347487
vt 0.712782 0.185722
vt 0.751992 0.216174
vt 0.614338 0.331124
vt 0.778411 0.088788
vt 0.829716 0.128632
vt 0.872687 0.428232
vt 0.971226 0.343244
vt 0.987637 0.406096
vt 0.860145 0.380196
vt 0.670267 0.387730
vt 0.786873 0.251503
vt 0.816865 0.291066
vt 0.654150 0.366471
vt 0.875354 0.174858
vt 0.914598 0.226623
vt 0.700263 0.461435
vt 0.693523 0.435624
vt 0.841413 0.334219
vt 0.683457 0.410918
vt 0.946717 0.283086
vn -0.0000 1.0000 -0.0000
usemtl None
s 1
f 1/1/1 2/2/1 3/3/1
f 1/1/1 4/4/1 2/2/1
f 5/5/1 6/6/1 4/4/1
f 4/4/1 7/7/1 2/2/1
f 4/4/1 8/8/1 7/7/1
f 9/9/1 10/10/1 11/11/1
f 12/12/1 10/10/1 9/9/1
f 9/9/1 13/13/1 6/6/1
f 9/9/1 11/11/1 13/13/1
f 14/14/1 12/12/1 9/9/1
f 14/14/1 6/6/1 5/5/1
f 14/14/1 9/9/1 6/6/1
f 6/6/1 8/8/1 4/4/1
f 6/6/1 13/13/1 8/8/1
f 15/15/1 16/16/1 17/17/1
f 18/18/1 16/16/1 15/15/1
f 19/19/1 20/20/1 21/21/1
f 19/19/1 22/22/1 20/20/1
f 12/12/1 21/21/1 10/10/1
f 12/12/1 19/19/1 21/21/1
f 23/23/1 22/22/1 19/19/1
f 23/23/1 24/24/1 22/22/1
f 25/25/1 19/19/1 12/12/1
f 23/23/1 19/19/1 25/25/1
f 3/3/1 18/18/1 15/15/1
f 3/3/1 2/2/1 18/18/1
f 18/18/1 26/26/1 16/16/1
f 27/27/1 26/26/1 18/18/1
f 28/28/1 29/29/1 30/30/1
f 28/28/1 31/31/1 29/29/1
f 22/22/1 30/30/1 20/20/1
f 22/22/1 28/28/1 30/30/1
f 32/32/1 31/31/1 28/28/1
f 32/32/1 33/33/1 31/31/1
f 24/24/1 28/28/1 22/22/1
f 24/24/1 32/32/1 28/28/1
f 2/2/1 27/27/1 18/18/1
f 7/7/1 27/27/1 2/2/1
f 34/34/1 35/35/1 36/36/1
f 37/37/1 35/35/1 34/34/1
f 17/17/1 37/37/1 34/34/1
f 16/16/1 37/37/1 17/17/1
f 38/38/1 39/39/1 40/40/1
f 38/38/1 41/41/1 39/39/1
f 31/31/1 40/40/1 29/29/1
f 31/31/1 38/38/1 40/40/1
f 42/42/1 41/41/1 38/38/1
f 42/42/1 43/43/1 41/41/1
f 33/33/1 38/38/1 31/31/1
f 33/33/1 42/42/1 38/38/1
f 37/37/1 44/44/1 35/35/1
f 45/45/1 44/44/1 37/37/1
f 16/16/1 45/45/1 37/37/1
f 26/26/1 45/45/1 16/16/1
f 46/46/1 47/47/1 48/48/1
f 46/46/1 49/49/1 47/47/1
f 41/41/1 48/48/1 39/39/1
f 41/41/1 46/46/1 48/48/1
f 50/50/1 49/49/1 46/46/1
f 50/50/1 51/51/1 49/49/1
f 43/43/1 46/46/1 41/41/1
f 43/43/1 50/50/1 46/46/1
f 52/52/1 53/53/1 54/54/1
f 55/55/1 53/53/1 52/52/1
f 36/36/1 55/55/1 52/52/1
f 35/35/1 55/55/1 36/36/1
f 55/55/1 56/56/1 53/53/1
f 57/57/1 56/56/1 55/55/1
f 58/58/1 59/59/1 60/60/1
f 58/58/1 61/61/1 59/59/1
f 49/49/1 60/60/1 47/47/1
f 49/49/1 58/58/1 60/60/1
f 62/62/1 61/61/1 58/58/1
f 62/62/1 63/63/1 61/61/1
f 51/51/1 58/58/1 49/49/1
f 51/51/1 62/62/1 58/58/1
f 35/35/1 57/57/1 55/55/1
f 44/44/1 57/57/1 35/35/1
f 64/64/1 65/65/1 66/66/1
f 67/67/1 65/65/1 64/64/1
f 68/68/1 69/69/1 70/70/1
f 71/71/1 69/69/1 68/68/1
f 59/59/1 71/71/1 68/68/1
f 61/61/1 71/71/1 59/59/1
f 71/71/1 72/72/1 69/69/1
f 73/73/1 72/72/1 71/71/1
f 61/61/1 73/73/1 71/71/1
f 63/63/1 73/73/1 61/61/1
f 54/54/1 67/67/1 64/64/1
f 53/53/1 67/67/1 54/54/1
f 67/67/1 74/74/1 65/65/1
f 75/75/1 74/74/1 67/67/1
f 76/76/1 77/77/1 78/78/1
f 79/79/1 77/77/1 76/76/1
f 70/70/1 79/79/1 76/76/1
f 69/69/1 79/79/1 70/70/1
f 79/79/1 80/80/1 77/77/1
f 81/81/1 80/80/1 79/79/1
f 69/69/1 81/81/1 79/79/1
f 72/72/1 81/81/1 69/69/1
f 53/53/1 75/75/1 67/67/1
f 56/56/1 75/75/1 53/53/1
f 82/82/1 83/83/1 84/84/1
f 65/65/1 85/85/1 66/66/1
f 86/86/1 87/87/1 88/88/1
f 89/89/1 87/87/1 86/86/1
f 78/78/1 89/89/1 86/86/1
f 77/77/1 89/89/1 78/78/1
f 89/89/1 90/90/1 87/87/1
f 91/91/1 90/90/1 89/89/1
f 77/77/1 91/91/1 89/89/1
f 80/80/1 91/91/1 77/77/1
f 85/85/1 92/92/1 83/83/1
f 93/93/1 92/92/1 85/85/1
f 65/65/1 93/93/1 85/85/1
f 74/74/1 93/93/1 65/65/1
f 94/94/1 95/95/1 96/96/1
f 97/97/1 95/95/1 94/94/1
f 88/88/1 97/97/1 94/94/1
f 87/87/1 97/97/1 88/88/1
f 97/97/1 98/98/1 95/95/1
f 99/99/1 98/98/1 97/97/1
f 87/87/1 99/99/1 97/97/1
f 90/90/1 99/99/1 87/87/1
f 100/100/1 101/101/1 102/102/1
f 83/83/1 103/103/1 84/84/1
f 104/104/1 101/101/1 100/100/1
f 104/104/1 105/105/1 101/101/1
f 106/106/1 107/107/1 108/108/1
f 109/109/1 107/107/1 106/106/1
f 96/96/1 109/109/1 106/106/1
f 95/95/1 109/109/1 96/96/1
f 109/109/1 110/110/1 107/107/1
f 109/109/1 111/111/1 110/110/1
f 95/95/1 111/111/1 109/109/1
f 98/98/1 111/111/1 95/95/1
f 92/92/1 100/100/1 83/83/1
f 92/92/1 104/104/1 100/100/1
f 112/112/1 113/113/1 114/114/1
f 112/112/1 115/115/1 113/113/1
f 116/116/1 117/117/1 118/118/1
f 116/116/1 119/119/1 117/117/1
f 108/108/1 119/119/1 116/116/1
f 108/108/1 107/107/1 119/119/1
f 119/119/1 120/120/1 117/117/1
f 119/119/1 121/121/1 120/120/1
f 107/107/1 121/121/1 119/119/1
f 101/101/1 114/114/1 102/102/1
f 101/101/1 112/112/1 114/114/1
f 122/122/1 115/115/1 112/112/1
f 122/122/1 123/123/1 115/115/1
f 124/124/1 125/125/1 126/126/1
f 127/127/1 125/125/1 124/124/1
f 127/127/1 117/117/1 125/125/1
f 118/118/1 117/117/1 127/127/1
f 126/126/1 128/128/1 129/129/1
f 125/125/1 128/128/1 126/126/1
f 117/117/1 120/120/1 125/125/1
f 105/105/1 112/112/1 101/101/1
f 105/105/1 122/122/1 112/112/1
f 130/130/1 131/131/1 132/132/1
f 130/130/1 133/133/1 131/131/1
f 115/115/1 132/132/1 113/113/1
f 115/115/1 130/130/1 132/132/1
f 134/134/1 135/135/1 136/136/1
f 134/134/1 137/137/1 135/135/1
f 137/137/1 126/126/1 135/135/1
f 137/137/1 124/124/1 126/126/1
f 136/136/1 138/138/1 139/139/1
f 136/136/1 135/135/1 138/138/1
f 135/135/1 129/129/1 138/138/1
f 126/126/1 129/129/1 135/135/1
f 140/140/1 133/133/1 130/130/1
f 140/140/1 141/141/1 133/133/1
f 123/123/1 130/130/1 115/115/1
f 123/123/1 140/140/1 130/130/1
f 141/141/1 142/142/1 133/133/1
f 141/141/1 143/143/1 142/142/1
f 143/143/1 136/136/1 142/142/1
f 143/143/1 134/134/1 136/136/1
f 133/133/1 144/144/1 131/131/1
f 133/133/1 142/142/1 144/144/1
f 142/142/1 139/139/1 144/144/1
f 142/142/1 136/136/1 139/139/1
f 5/5/1 4/4/1 1/1/1
f 25/25/1 12/12/1 14/14/1
f 85/85/1 83/83/1 82/82/1
f 66/66/1 85/85/1 82/82/1
f 100/100/1 102/102/1 103/103/1
f 83/83/1 100/100/1 103/103/1
f 107/107/1 110/110/1 121/121/1
f 125/125/1 120/120/1 128/128/1
