# Blender v2.80 (sub 75) OBJ File: ''
# www.blender.org
mtllib floor.mtl
o ground_groundShape
v -61.150894 2.190913 -8.663614
v -44.872620 2.190914 -12.989858
v -59.512482 2.190916 -16.912596
v -46.124809 2.190912 -6.685392
v -61.703308 2.190910 -0.271658
v -46.547005 2.190910 -0.271658
v -22.912823 2.190912 -7.105748
v -23.585684 2.190912 -3.718061
v -46.124809 2.190908 6.142077
v -22.912823 2.190908 6.562432
v -23.585684 2.190910 3.174745
v -44.872620 2.190907 12.446542
v -23.812548 2.190910 -0.271658
v -61.150894 2.190907 8.120298
v -56.806900 2.190918 -24.875629
v -39.963577 2.190918 -24.841333
v -53.089321 2.190920 -32.419487
v -42.804813 2.190916 -19.075779
v -42.804813 2.190905 18.532461
v -20.274963 2.190906 12.930789
v -21.801697 2.190907 9.832685
v -39.963577 2.190903 24.298018
v -56.806900 2.190903 24.332314
v -53.089321 2.190901 31.876169
v -59.512482 2.190905 16.369280
v -20.274963 2.190914 -13.474105
v -21.801697 2.190914 -10.376000
v -36.391083 2.190901 29.641376
v -16.078733 2.190905 18.399422
v -18.355291 2.190905 15.802031
v -32.154419 2.190900 34.475105
v -48.414944 2.190899 38.867615
v -42.871548 2.190897 45.192238
v -48.414944 2.190922 -39.410927
v -32.154419 2.190921 -35.018425
v -42.871548 2.190924 -45.735550
v -36.391083 2.190919 -30.184692
v -27.320688 2.190899 38.711769
v -10.610101 2.190903 22.595652
v -13.481342 2.190904 20.675980
v -21.977329 2.190898 42.284264
v -36.546925 2.190895 50.735634
v -29.555481 2.190894 55.410011
v -16.078733 2.190916 -18.942738
v -18.355291 2.190915 -16.345346
v -16.211773 2.190897 45.125511
v -4.241744 2.190903 25.233511
v -7.511996 2.190903 24.122385
v -10.125854 2.190896 47.193306
v -22.011625 2.190892 59.127586
v -14.048592 2.190892 61.833168
v -36.546925 2.190925 -51.278946
v -21.977329 2.190923 -42.827583
v -29.555481 2.190927 -55.953323
v -27.320690 2.190922 -39.255089
v -10.610101 2.190917 -23.138968
v -13.481342 2.190916 -21.219296
v -3.821389 2.190896 48.445496
v 2.592346 2.190903 26.133236
v -0.854057 2.190903 25.906372
v 2.592346 2.190896 48.867691
v -5.799610 2.190892 63.471581
v 2.592346 2.190892 64.023994
v -22.011625 2.190928 -59.670906
v -10.125854 2.190925 -47.736626
v -14.048592 2.190929 -62.376488
v -16.211775 2.190924 -45.668816
v 6.038749 2.190903 25.906372
v 15.310546 2.190896 47.193306
v 9.426435 2.190903 25.233511
v 9.006082 2.190896 48.445496
v 19.233284 2.190892 61.833168
v 10.984303 2.190892 63.471581
v -4.241744 2.190918 -25.776827
v -7.511996 2.190918 -24.665701
v 12.696689 2.190903 24.122385
v 27.162022 2.190898 42.284264
v 15.794793 2.190903 22.595652
v 21.396465 2.190897 45.125504
v 34.740173 2.190894 55.410011
v 27.196318 2.190892 59.127586
v -5.799610 2.190929 -64.014900
v 2.592346 2.190925 -49.411011
v 2.592346 2.190929 -64.567314
v -3.821389 2.190925 -48.988815
v 18.666035 2.190904 20.675980
v 37.339111 2.190900 34.475105
v 21.263426 2.190905 18.399422
v 32.505379 2.190899 38.711769
v 48.056240 2.190897 45.192238
v 41.731617 2.190895 50.735634
v 2.592346 2.190918 -26.676552
v -0.854057 2.190918 -26.449688
v 23.539984 2.190905 15.802031
v 45.148270 2.190903 24.298018
v 25.459656 2.190906 12.930789
v 41.575775 2.190901 29.641376
v 58.274014 2.190901 31.876169
v 53.599636 2.190899 38.867615
v 9.006082 2.190925 -48.988815
v 15.310546 2.190925 -47.736626
v 19.233284 2.190929 -62.376488
v 10.984303 2.190929 -64.014900
v 6.038749 2.190918 -26.449688
v 9.426435 2.190918 -25.776827
v 26.986389 2.190907 9.832685
v 50.057312 2.190907 12.446542
v 28.097515 2.190908 6.562432
v 47.989513 2.190905 18.532461
v 64.697174 2.190905 16.369280
v 61.991592 2.190903 24.332314
v 21.396467 2.190924 -45.668816
v 34.740173 2.190927 -55.953323
v 27.196318 2.190928 -59.670906
v 27.162022 2.190923 -42.827583
v 28.770376 2.190910 3.174745
v 51.731697 2.190910 -0.271658
v 28.997240 2.190910 -0.271658
v 51.309502 2.190908 6.142077
v 66.888000 2.190910 -0.271658
v 66.335587 2.190907 8.120298
v 12.696689 2.190918 -24.665701
v 15.794793 2.190917 -23.138968
v 28.097515 2.190912 -7.105748
v 51.309502 2.190912 -6.685392
v 50.057312 2.190914 -12.989858
v 28.770376 2.190912 -3.718061
v 66.335587 2.190913 -8.663614
v 64.697174 2.190916 -16.912596
v 32.505379 2.190922 -39.255089
v 48.056240 2.190924 -45.735550
v 41.731617 2.190925 -51.278946
v 37.339111 2.190921 -35.018425
v 25.459656 2.190914 -13.474105
v 47.989506 2.190916 -19.075777
v 45.148270 2.190918 -24.841333
v 26.986389 2.190914 -10.376000
v 61.991592 2.190918 -24.875629
v 58.274014 2.190920 -32.419487
v 18.666035 2.190916 -21.219296
v 21.263426 2.190916 -18.942738
v 41.575775 2.190919 -30.184692
v 23.539984 2.190915 -16.345346
v 53.599636 2.190922 -39.410927
vt 0.337505 0.969258
vt 0.423681 0.871796
vt 0.400142 0.986472
vt 0.375809 0.858641
vt 0.277636 0.944050
vt 0.330054 0.839375
vt 0.458990 0.699784
vt 0.433267 0.692715
vt 0.287218 0.814278
vt 0.364593 0.652513
vt 0.385662 0.668876
vt 0.248008 0.783826
vt 0.408680 0.682362
vt 0.221589 0.911212
vt 0.464495 0.995326
vt 0.522510 0.878881
vt 0.529452 0.995741
vt 0.472864 0.878563
vt 0.213127 0.748497
vt 0.329733 0.612270
vt 0.345850 0.633529
vt 0.183135 0.708934
vt 0.124646 0.825142
vt 0.085402 0.773377
vt 0.170284 0.871368
vt 0.512096 0.703591
vt 0.485419 0.703420
vt 0.158587 0.665781
vt 0.306477 0.564376
vt 0.316542 0.589082
vt 0.139855 0.619804
vt 0.053283 0.716914
vt 0.028774 0.656756
vt 0.593904 0.987637
vt 0.619804 0.860145
vt 0.656756 0.971226
vt 0.571768 0.872687
vt 0.127313 0.571768
vt 0.296410 0.512096
vt 0.299737 0.538565
vt 0.121119 0.522510
vt 0.012363 0.593904
vt 0.004259 0.529452
vt 0.564376 0.693523
vt 0.538565 0.700263
vt 0.121437 0.472864
vt 0.300216 0.458990
vt 0.296580 0.485419
vt 0.128203 0.423681
vt 0.004674 0.464495
vt 0.013528 0.400142
vt 0.716914 0.946717
vt 0.708934 0.816865
vt 0.773377 0.914598
vt 0.665781 0.841413
vt 0.612270 0.670267
vt 0.589082 0.683457
vt 0.141359 0.375809
vt 0.317638 0.408680
vt 0.307285 0.433267
vt 0.160625 0.330054
vt 0.030742 0.337505
vt 0.055950 0.277636
vt 0.825142 0.875354
vt 0.783826 0.751992
vt 0.871368 0.829716
vt 0.748497 0.786873
vt 0.331124 0.385662
vt 0.216174 0.248008
vt 0.347487 0.364593
vt 0.185722 0.287218
vt 0.128632 0.170284
vt 0.088788 0.221589
vt 0.652513 0.635407
vt 0.633529 0.654150
vt 0.366471 0.345850
vt 0.291066 0.183135
vt 0.387730 0.329733
vt 0.251503 0.213127
vt 0.226623 0.085402
vt 0.174858 0.124646
vt 0.911212 0.778411
vt 0.839375 0.669946
vt 0.944050 0.722364
vt 0.814278 0.712782
vt 0.410918 0.316542
vt 0.380196 0.139855
vt 0.435624 0.306477
vt 0.334219 0.158587
vt 0.343244 0.028774
vt 0.283086 0.053283
vt 0.682362 0.591320
vt 0.668876 0.614338
vt 0.461435 0.299737
vt 0.477490 0.121119
vt 0.487904 0.296409
vt 0.428232 0.127313
vt 0.470547 0.004259
vt 0.406096 0.012363
vt 0.858641 0.624191
vt 0.871796 0.576319
vt 0.986472 0.599858
vt 0.969258 0.662495
vt 0.692715 0.566733
vt 0.699784 0.541010
vt 0.514581 0.296580
vt 0.576319 0.128204
vt 0.541010 0.300216
vt 0.527136 0.121437
vt 0.599858 0.013528
vt 0.535505 0.004674
vt 0.878563 0.527136
vt 0.995741 0.470547
vt 0.995326 0.535505
vt 0.878881 0.477490
vt 0.566733 0.307285
vt 0.669946 0.160625
vt 0.591320 0.317638
vt 0.624191 0.141359
vt 0.722364 0.055950
vt 0.662495 0.030742
vt 0.703420 0.514581
vt 0.703591 0.487904
vt 0.635407 0.347487
vt 0.712782 0.185722
vt 0.751992 0.216174
vt 0.614338 0.331124
vt 0.778411 0.088788
vt 0.829716 0.128632
vt 0.872687 0.428232
vt 0.971226 0.343244
vt 0.987637 0.406096
vt 0.860145 0.380196
vt 0.670267 0.387730
vt 0.786873 0.251503
vt 0.816865 0.291066
vt 0.654150 0.366471
vt 0.875354 0.174858
vt 0.914598 0.226623
vt 0.700263 0.461435
vt 0.693523 0.435624
vt 0.841413 0.334219
vt 0.683457 0.410918
vt 0.946717 0.283086
vn 0.0000 1.0000 0.0000
usemtl None
s off
f 1/1/1 2/2/1 3/3/1
f 1/1/1 4/4/1 2/2/1
f 5/5/1 6/6/1 4/4/1
f 4/4/1 7/7/1 2/2/1
f 4/4/1 8/8/1 7/7/1
f 9/9/1 10/10/1 11/11/1
f 12/12/1 10/10/1 9/9/1
f 9/9/1 13/13/1 6/6/1
f 9/9/1 11/11/1 13/13/1
f 14/14/1 12/12/1 9/9/1
f 14/14/1 6/6/1 5/5/1
f 14/14/1 9/9/1 6/6/1
f 6/6/1 8/8/1 4/4/1
f 6/6/1 13/13/1 8/8/1
f 15/15/1 16/16/1 17/17/1
f 18/18/1 16/16/1 15/15/1
f 19/19/1 20/20/1 21/21/1
f 19/19/1 22/22/1 20/20/1
f 12/12/1 21/21/1 10/10/1
f 12/12/1 19/19/1 21/21/1
f 23/23/1 22/22/1 19/19/1
f 23/23/1 24/24/1 22/22/1
f 25/25/1 19/19/1 12/12/1
f 23/23/1 19/19/1 25/25/1
f 3/3/1 18/18/1 15/15/1
f 3/3/1 2/2/1 18/18/1
f 18/18/1 26/26/1 16/16/1
f 27/27/1 26/26/1 18/18/1
f 28/28/1 29/29/1 30/30/1
f 28/28/1 31/31/1 29/29/1
f 22/22/1 30/30/1 20/20/1
f 22/22/1 28/28/1 30/30/1
f 32/32/1 31/31/1 28/28/1
f 32/32/1 33/33/1 31/31/1
f 24/24/1 28/28/1 22/22/1
f 24/24/1 32/32/1 28/28/1
f 2/2/1 27/27/1 18/18/1
f 7/7/1 27/27/1 2/2/1
f 34/34/1 35/35/1 36/36/1
f 37/37/1 35/35/1 34/34/1
f 17/17/1 37/37/1 34/34/1
f 16/16/1 37/37/1 17/17/1
f 38/38/1 39/39/1 40/40/1
f 38/38/1 41/41/1 39/39/1
f 31/31/1 40/40/1 29/29/1
f 31/31/1 38/38/1 40/40/1
f 42/42/1 41/41/1 38/38/1
f 42/42/1 43/43/1 41/41/1
f 33/33/1 38/38/1 31/31/1
f 33/33/1 42/42/1 38/38/1
f 37/37/1 44/44/1 35/35/1
f 45/45/1 44/44/1 37/37/1
f 16/16/1 45/45/1 37/37/1
f 26/26/1 45/45/1 16/16/1
f 46/46/1 47/47/1 48/48/1
f 46/46/1 49/49/1 47/47/1
f 41/41/1 48/48/1 39/39/1
f 41/41/1 46/46/1 48/48/1
f 50/50/1 49/49/1 46/46/1
f 50/50/1 51/51/1 49/49/1
f 43/43/1 46/46/1 41/41/1
f 43/43/1 50/50/1 46/46/1
f 52/52/1 53/53/1 54/54/1
f 55/55/1 53/53/1 52/52/1
f 36/36/1 55/55/1 52/52/1
f 35/35/1 55/55/1 36/36/1
f 55/55/1 56/56/1 53/53/1
f 57/57/1 56/56/1 55/55/1
f 58/58/1 59/59/1 60/60/1
f 58/58/1 61/61/1 59/59/1
f 49/49/1 60/60/1 47/47/1
f 49/49/1 58/58/1 60/60/1
f 62/62/1 61/61/1 58/58/1
f 62/62/1 63/63/1 61/61/1
f 51/51/1 58/58/1 49/49/1
f 51/51/1 62/62/1 58/58/1
f 35/35/1 57/57/1 55/55/1
f 44/44/1 57/57/1 35/35/1
f 64/64/1 65/65/1 66/66/1
f 67/67/1 65/65/1 64/64/1
f 68/68/1 69/69/1 70/70/1
f 71/71/1 69/69/1 68/68/1
f 59/59/1 71/71/1 68/68/1
f 61/61/1 71/71/1 59/59/1
f 71/71/1 72/72/1 69/69/1
f 73/73/1 72/72/1 71/71/1
f 61/61/1 73/73/1 71/71/1
f 63/63/1 73/73/1 61/61/1
f 54/54/1 67/67/1 64/64/1
f 53/53/1 67/67/1 54/54/1
f 67/67/1 74/74/1 65/65/1
f 75/75/1 74/74/1 67/67/1
f 76/76/1 77/77/1 78/78/1
f 79/79/1 77/77/1 76/76/1
f 70/70/1 79/79/1 76/76/1
f 69/69/1 79/79/1 70/70/1
f 79/79/1 80/80/1 77/77/1
f 81/81/1 80/80/1 79/79/1
f 69/69/1 81/81/1 79/79/1
f 72/72/1 81/81/1 69/69/1
f 53/53/1 75/75/1 67/67/1
f 56/56/1 75/75/1 53/53/1
f 82/82/1 83/83/1 84/84/1
f 65/65/1 85/85/1 66/66/1
f 86/86/1 87/87/1 88/88/1
f 89/89/1 87/87/1 86/86/1
f 78/78/1 89/89/1 86/86/1
f 77/77/1 89/89/1 78/78/1
f 89/89/1 90/90/1 87/87/1
f 91/91/1 90/90/1 89/89/1
f 77/77/1 91/91/1 89/89/1
f 80/80/1 91/91/1 77/77/1
f 85/85/1 92/92/1 83/83/1
f 93/93/1 92/92/1 85/85/1
f 65/65/1 93/93/1 85/85/1
f 74/74/1 93/93/1 65/65/1
f 94/94/1 95/95/1 96/96/1
f 97/97/1 95/95/1 94/94/1
f 88/88/1 97/97/1 94/94/1
f 87/87/1 97/97/1 88/88/1
f 97/97/1 98/98/1 95/95/1
f 99/99/1 98/98/1 97/97/1
f 87/87/1 99/99/1 97/97/1
f 90/90/1 99/99/1 87/87/1
f 100/100/1 101/101/1 102/102/1
f 83/83/1 103/103/1 84/84/1
f 104/104/1 101/101/1 100/100/1
f 104/104/1 105/105/1 101/101/1
f 106/106/1 107/107/1 108/108/1
f 109/109/1 107/107/1 106/106/1
f 96/96/1 109/109/1 106/106/1
f 95/95/1 109/109/1 96/96/1
f 109/109/1 110/110/1 107/107/1
f 109/109/1 111/111/1 110/110/1
f 95/95/1 111/111/1 109/109/1
f 98/98/1 111/111/1 95/95/1
f 92/92/1 100/100/1 83/83/1
f 92/92/1 104/104/1 100/100/1
f 112/112/1 113/113/1 114/114/1
f 112/112/1 115/115/1 113/113/1
f 116/116/1 117/117/1 118/118/1
f 116/116/1 119/119/1 117/117/1
f 108/108/1 119/119/1 116/116/1
f 108/108/1 107/107/1 119/119/1
f 119/119/1 120/120/1 117/117/1
f 119/119/1 121/121/1 120/120/1
f 107/107/1 121/121/1 119/119/1
f 101/101/1 114/114/1 102/102/1
f 101/101/1 112/112/1 114/114/1
f 122/122/1 115/115/1 112/112/1
f 122/122/1 123/123/1 115/115/1
f 124/124/1 125/125/1 126/126/1
f 127/127/1 125/125/1 124/124/1
f 127/127/1 117/117/1 125/125/1
f 118/118/1 117/117/1 127/127/1
f 126/126/1 128/128/1 129/129/1
f 125/125/1 128/128/1 126/126/1
f 117/117/1 120/120/1 125/125/1
f 105/105/1 112/112/1 101/101/1
f 105/105/1 122/122/1 112/112/1
f 130/130/1 131/131/1 132/132/1
f 130/130/1 133/133/1 131/131/1
f 115/115/1 132/132/1 113/113/1
f 115/115/1 130/130/1 132/132/1
f 134/134/1 135/135/1 136/136/1
f 134/134/1 137/137/1 135/135/1
f 137/137/1 126/126/1 135/135/1
f 137/137/1 124/124/1 126/126/1
f 136/136/1 138/138/1 139/139/1
f 136/136/1 135/135/1 138/138/1
f 135/135/1 129/129/1 138/138/1
f 126/126/1 129/129/1 135/135/1
f 140/140/1 133/133/1 130/130/1
f 140/140/1 141/141/1 133/133/1
f 123/123/1 130/130/1 115/115/1
f 123/123/1 140/140/1 130/130/1
f 141/141/1 142/142/1 133/133/1
f 141/141/1 143/143/1 142/142/1
f 143/143/1 136/136/1 142/142/1
f 143/143/1 134/134/1 136/136/1
f 133/133/1 144/144/1 131/131/1
f 133/133/1 142/142/1 144/144/1
f 142/142/1 139/139/1 144/144/1
f 142/142/1 136/136/1 139/139/1
s 1
f 5/5/1 4/4/1 1/1/1
f 25/25/1 12/12/1 14/14/1
f 85/85/1 83/83/1 82/82/1
f 66/66/1 85/85/1 82/82/1
f 100/100/1 102/102/1 103/103/1
f 83/83/1 100/100/1 103/103/1
f 107/107/1 110/110/1 121/121/1
f 125/125/1 120/120/1 128/128/1
